
<?xml version="1.0" encoding="UTF-8" standalone="no"?>
<svg
   xmlns:dc="http://purl.org/dc/elements/1.1/"
   xmlns:cc="http://creativecommons.org/ns#"
   xmlns:rdf="http://www.w3.org/1999/02/22-rdf-syntax-ns#"
   xmlns:svg="http://www.w3.org/2000/svg"
   xmlns="http://www.w3.org/2000/svg"
   viewBox="0 0 96 96"
   height="96"
   width="96"
   xml:space="preserve"
   id="svg2"
   version="1.1"><metadata
     id="metadata8"><rdf:RDF><cc:Work
         rdf:about=""><dc:format>image/svg+xml</dc:format><dc:type
           rdf:resource="http://purl.org/dc/dcmitype/StillImage" /></cc:Work></rdf:RDF></metadata><defs
     id="defs6"><clipPath
       id="clipPath18"
       clipPathUnits="userSpaceOnUse"><path
         id="path16"
         d="M 0,72 H 72 V 0 H 0 Z" /></clipPath><clipPath
       id="clipPath30"
       clipPathUnits="userSpaceOnUse"><path
         id="path28"
         d="M 0,72 H 72 V 0 H 0 Z" /></clipPath></defs><g
     transform="matrix(1.3333333,0,0,-1.3333333,0,96)"
     id="g10"><g
       id="g12"><g
         clip-path="url(#clipPath18)"
         id="g14"><g
           transform="translate(72,36)"
           id="g20"><path
             id="path22"
             style="fill:#b01f25;fill-opacity:1;fill-rule:nonzero;stroke:none"
             d="m 0,0 c 0,-19.881 -16.121,-36 -36,-36 -19.882,0 -36,16.119 -36,36 0,19.881 16.118,36 36,36 C -16.121,36 0,19.881 0,0" /></g></g></g><g
       id="g24"><g
         clip-path="url(#clipPath30)"
         id="g26"><g
           transform="translate(36.0458,31.585)"
           id="g32"><path
             id="path34"
             style="fill:#a9cdd5;fill-opacity:1;fill-rule:nonzero;stroke:none"
             d="M 0,0 C -2.145,0 -3.885,1.74 -3.885,3.885 -3.885,6.031 -2.145,7.77 0,7.77 2.145,7.77 3.885,6.031 3.885,3.885 3.885,1.74 2.145,0 0,0 M 7.77,2.914 V 4.856 L 5.671,5.206 C 5.525,5.837 5.276,6.426 4.944,6.96 L 6.181,8.692 4.808,10.065 3.075,8.828 C 2.541,9.16 1.952,9.409 1.322,9.557 l -0.35,2.097 H -0.971 L -1.321,9.557 C -1.951,9.409 -2.541,9.16 -3.074,8.828 L -4.807,10.065 -6.18,8.692 -4.943,6.96 C -5.276,6.427 -5.524,5.837 -5.67,5.206 L -7.769,4.856 V 2.914 l 2.099,-0.35 c 0.146,-0.631 0.395,-1.22 0.727,-1.754 l -1.237,-1.733 1.373,-1.373 1.734,1.238 c 0.533,-0.333 1.123,-0.581 1.752,-0.728 l 0.35,-2.098 h 1.943 l 0.35,2.098 c 0.63,0.147 1.22,0.395 1.753,0.728 L 4.808,-2.296 6.181,-0.923 4.944,0.81 c 0.333,0.534 0.581,1.124 0.727,1.754 z" /></g><g
           transform="translate(36.0975,49.1375)"
           id="g36"><path
             id="path38"
             style="fill:#a9cdd5;fill-opacity:1;fill-rule:nonzero;stroke:none"
             d="M 0,0 C -2.892,1.419 -5.748,2.628 -8.494,3.602 -8.621,3.017 -8.748,2.432 -8.861,1.827 -6.651,1.033 -4.363,0.069 -2.045,-1.023 -1.36,-0.671 -0.677,-0.327 0,0" /></g><g
           transform="translate(30.943,26.7623)"
           id="g40"><path
             id="path42"
             style="fill:#ffffff;fill-opacity:1;fill-rule:nonzero;stroke:none"
             d="m 0,0 c -1.693,0.984 -3.33,2.007 -4.903,3.054 0.044,-0.763 0.102,-1.513 0.165,-2.26 1.244,-0.802 2.522,-1.588 3.834,-2.351 1.323,-0.769 2.649,-1.484 3.973,-2.174 0.668,0.312 1.345,0.639 2.028,0.978 C 3.403,-1.901 1.699,-0.988 0,0" /></g><g
           transform="translate(47.9482,40.0536)"
           id="g44"><path
             id="path46"
             style="fill:#a9cdd5;fill-opacity:1;fill-rule:nonzero;stroke:none"
             d="m 0,0 c 2.112,-1.484 4.082,-3.009 5.876,-4.547 0.472,0.398 0.932,0.795 1.373,1.19 C 5.035,-1.444 2.559,0.448 -0.117,2.267 -0.067,1.52 -0.033,0.761 0,0" /></g><g
           transform="translate(41.1841,44.3773)"
           id="g48"><path
             id="path50"
             style="fill:#a9cdd5;fill-opacity:1;fill-rule:nonzero;stroke:none"
             d="M 0,0 C 1.693,-0.984 3.33,-2.007 4.903,-3.054 4.859,-2.291 4.801,-1.541 4.738,-0.794 3.494,0.008 2.216,0.794 0.904,1.557 -0.419,2.326 -1.744,3.041 -3.068,3.731 -3.737,3.419 -4.414,3.092 -5.097,2.753 -3.403,1.901 -1.699,0.987 0,0" /></g><g
           transform="translate(24.1789,31.0861)"
           id="g52"><path
             id="path54"
             style="fill:#ffffff;fill-opacity:1;fill-rule:nonzero;stroke:none"
             d="M 0,0 C -2.112,1.484 -4.082,3.009 -5.876,4.547 -6.348,4.149 -6.808,3.752 -7.249,3.357 -5.035,1.444 -2.559,-0.447 0.117,-2.267 0.067,-1.52 0.033,-0.76 0,0" /></g><g
           transform="translate(12.8297,40.9931)"
           id="g56"><path
             id="path58"
             style="fill:#ffffff;fill-opacity:1;fill-rule:nonzero;stroke:none"
             d="m 0,0 c -3.951,4.532 -5.493,8.375 -4.232,10.544 0.826,1.421 2.872,2.152 5.843,2.152 1.563,0 3.382,-0.203 5.413,-0.613 1.793,-0.362 3.697,-0.887 5.666,-1.531 0.115,0.602 0.239,1.191 0.367,1.773 -1.969,0.638 -3.876,1.158 -5.676,1.522 -6.796,1.374 -11.471,0.521 -13.169,-2.399 -1.698,-2.92 -0.124,-7.405 4.431,-12.631 1.208,-1.385 2.595,-2.785 4.123,-4.181 0.44,0.398 0.893,0.796 1.359,1.195 C 2.591,-2.776 1.203,-1.379 0,0" /></g><g
           transform="translate(56.5313,35.5109)"
           id="g60"><path
             id="path62"
             style="fill:#a9cdd5;fill-opacity:1;fill-rule:nonzero;stroke:none"
             d="m 0,0 c -0.44,-0.398 -0.893,-0.796 -1.359,-1.195 1.535,-1.393 2.923,-2.79 4.125,-4.169 3.951,-4.532 5.493,-8.375 4.232,-10.544 -1.261,-2.169 -5.363,-2.731 -11.256,-1.539 -1.793,0.362 -3.697,0.887 -5.666,1.531 -0.115,-0.603 -0.239,-1.191 -0.367,-1.774 1.969,-0.637 3.876,-1.158 5.676,-1.522 2.12,-0.428 4.034,-0.64 5.715,-0.64 3.708,0 6.287,1.03 7.455,3.039 1.697,2.92 0.123,7.406 -4.432,12.632 C 2.915,-2.796 1.529,-1.396 0,0" /></g><g
           transform="translate(36.028,22.0026)"
           id="g64"><path
             id="path66"
             style="fill:#ffffff;fill-opacity:1;fill-rule:nonzero;stroke:none"
             d="m 0,0 c 2.893,-1.419 5.749,-2.628 8.496,-3.603 0.127,0.585 0.253,1.17 0.367,1.776 C 6.653,-1.034 4.367,-0.071 2.05,1.021 1.363,0.668 0.68,0.329 0,0" /></g><g
           transform="translate(42.9836,12.7372)"
           id="g68"><path
             id="path70"
             style="fill:#ffffff;fill-opacity:1;fill-rule:nonzero;stroke:none"
             d="m 0,0 c -1.947,-5.681 -4.5,-8.938 -7.006,-8.937 h -0.009 c -2.508,0.007 -5.046,3.28 -6.961,8.979 -0.583,1.733 -1.08,3.646 -1.507,5.673 -0.58,-0.201 -1.153,-0.391 -1.72,-0.57 0.433,-2.024 0.935,-3.936 1.521,-5.677 2.208,-6.571 5.285,-10.195 8.662,-10.205 h 0.014 c 3.372,0 6.465,3.605 8.709,10.153 0.595,1.738 1.11,3.647 1.554,5.668 C 2.689,5.268 2.119,5.458 1.54,5.663 1.102,3.639 0.593,1.73 0,0" /></g><g
           transform="translate(25.8757,35.6001)"
           id="g72"><path
             id="path74"
             style="fill:#a9cdd5;fill-opacity:1;fill-rule:nonzero;stroke:none"
             d="M 0,0 C 0.006,1.965 0.078,3.897 0.199,5.789 -0.439,5.371 -1.063,4.952 -1.669,4.533 -1.743,3.041 -1.795,1.535 -1.8,0.005 c -0.005,-1.527 0.039,-3.03 0.103,-4.519 0.608,-0.427 1.231,-0.85 1.861,-1.27 C 0.055,-3.893 -0.006,-1.963 0,0" /></g><g
           transform="translate(26.2525,43.6417)"
           id="g76"><path
             id="path78"
             style="fill:#a9cdd5;fill-opacity:1;fill-rule:nonzero;stroke:none"
             d="M 0,0 C 0.228,2.553 0.552,5.014 0.984,7.323 0.404,7.53 -0.165,7.717 -0.733,7.903 -1.28,5.041 -1.679,1.965 -1.916,-1.248 -1.291,-0.828 -0.65,-0.413 0,0" /></g><g
           transform="translate(45.8746,27.4984)"
           id="g80"><path
             id="path82"
             style="fill:#ffffff;fill-opacity:1;fill-rule:nonzero;stroke:none"
             d="m 0,0 c -0.228,-2.553 -0.552,-5.015 -0.984,-7.323 0.58,-0.208 1.149,-0.394 1.717,-0.58 0.547,2.862 0.946,5.938 1.183,9.151 C 1.291,0.828 0.65,0.413 0,0" /></g><g
           transform="translate(29.1435,58.4025)"
           id="g84"><path
             id="path86"
             style="fill:#a9cdd5;fill-opacity:1;fill-rule:nonzero;stroke:none"
             d="m 0,0 c 1.947,5.681 4.5,8.937 7.006,8.937 h 0.009 c 2.508,-0.007 5.046,-3.28 6.961,-8.979 0.582,-1.732 1.079,-3.643 1.506,-5.668 0.58,0.201 1.153,0.391 1.72,0.57 -0.433,2.022 -0.935,3.932 -1.52,5.672 C 13.474,7.103 10.397,10.727 7.02,10.737 H 7.006 c -3.372,0 -6.465,-3.605 -8.709,-10.153 -0.595,-1.738 -1.11,-3.647 -1.554,-5.668 0.568,-0.184 1.138,-0.374 1.717,-0.579 C -1.102,-3.639 -0.593,-1.73 0,0" /></g><g
           transform="translate(47.8309,42.3207)"
           id="g88"><path
             id="path90"
             style="fill:#ffffff;fill-opacity:1;fill-rule:nonzero;stroke:none"
             d="M 0,0 C -0.219,3.227 -0.602,6.316 -1.134,9.192 -1.697,9.011 -2.271,8.814 -2.853,8.608 -2.433,6.293 -2.123,3.824 -1.909,1.263 -1.262,0.846 -0.626,0.425 0,0" /></g><g
           transform="translate(24.2961,28.8194)"
           id="g92"><path
             id="path94"
             style="fill:#a9cdd5;fill-opacity:1;fill-rule:nonzero;stroke:none"
             d="m 0,0 c 0.219,-3.228 0.602,-6.317 1.134,-9.192 0.563,0.18 1.137,0.377 1.719,0.582 -0.42,2.317 -0.731,4.786 -0.945,7.347 C 1.262,-0.846 0.626,-0.425 0,0" /></g><g
           transform="translate(47.9482,40.0536)"
           id="g96"><path
             id="path98"
             style="fill:#ffffff;fill-opacity:1;fill-rule:nonzero;stroke:none"
             d="m 0,0 c -0.608,0.428 -1.231,0.85 -1.861,1.27 0.109,-1.891 0.17,-3.821 0.164,-5.784 -0.006,-1.965 -0.078,-3.897 -0.199,-5.789 0.638,0.418 1.262,0.837 1.869,1.256 0.073,1.491 0.126,2.997 0.13,4.528 C 0.108,-2.992 0.065,-1.488 0,0" /></g><g
           transform="translate(47.9482,40.0536)"
           id="g100"><path
             id="path102"
             style="fill:#a9cdd5;fill-opacity:1;fill-rule:nonzero;stroke:none"
             d="M 0,0 C -0.033,0.761 -0.067,1.52 -0.117,2.267 -0.743,2.693 -1.38,3.114 -2.026,3.53 -1.964,2.783 -1.905,2.033 -1.861,1.27 -1.231,0.85 -0.608,0.428 0,0" /></g><g
           transform="translate(44.8906,20.1753)"
           id="g104"><path
             id="path106"
             style="fill:#ffffff;fill-opacity:1;fill-rule:nonzero;stroke:none"
             d="M 0,0 C -0.113,-0.606 -0.24,-1.19 -0.367,-1.775 0.212,-1.981 0.782,-2.17 1.35,-2.354 1.478,-1.771 1.602,-1.183 1.717,-0.58 1.149,-0.394 0.58,-0.208 0,0" /></g><g
           transform="translate(24.1789,31.0861)"
           id="g108"><path
             id="path110"
             style="fill:#ffffff;fill-opacity:1;fill-rule:nonzero;stroke:none"
             d="M 0,0 C 0.033,-0.76 0.067,-1.52 0.117,-2.267 0.743,-2.692 1.38,-3.113 2.026,-3.53 1.963,-2.783 1.905,-2.032 1.861,-1.27 1.23,-0.85 0.608,-0.427 0,0" /></g><g
           transform="translate(27.2365,50.9643)"
           id="g112"><path
             id="path114"
             style="fill:#a9cdd5;fill-opacity:1;fill-rule:nonzero;stroke:none"
             d="M 0,0 C 0.113,0.606 0.24,1.19 0.367,1.775 -0.212,1.98 -0.782,2.17 -1.35,2.354 -1.478,1.771 -1.602,1.183 -1.717,0.581 -1.149,0.394 -0.58,0.208 0,0" /></g><g
           transform="translate(38.1156,48.1079)"
           id="g116"><path
             id="path118"
             style="fill:#ffffff;fill-opacity:1;fill-rule:nonzero;stroke:none"
             d="M 0,0 C 2.395,1.117 4.693,2.055 6.863,2.821 6.754,3.422 6.632,4.004 6.51,4.584 3.792,3.641 0.927,2.453 -2.018,1.03 -1.347,0.701 -0.674,0.351 0,0" /></g><g
           transform="translate(41.1313,26.732)"
           id="g120"><path
             id="path122"
             style="fill:#a9cdd5;fill-opacity:1;fill-rule:nonzero;stroke:none"
             d="m 0,0 c -1.732,-0.993 -3.431,-1.897 -5.091,-2.722 0.682,-0.343 1.36,-0.667 2.037,-0.987 1.307,0.672 2.625,1.388 3.95,2.147 1.326,0.76 2.606,1.539 3.847,2.328 C 4.81,1.511 4.873,2.258 4.921,3.019 3.37,2.003 1.732,0.993 0,0" /></g><g
           transform="translate(34.0117,23.0318)"
           id="g124"><path
             id="path126"
             style="fill:#a9cdd5;fill-opacity:1;fill-rule:nonzero;stroke:none"
             d="m 0,0 c -2.395,-1.117 -4.693,-2.055 -6.863,-2.822 0.109,-0.599 0.23,-1.179 0.352,-1.758 2.718,0.944 5.581,2.127 8.527,3.551 C 1.346,-0.7 0.673,-0.351 0,0" /></g><g
           transform="translate(30.9958,44.4081)"
           id="g128"><path
             id="path130"
             style="fill:#ffffff;fill-opacity:1;fill-rule:nonzero;stroke:none"
             d="M 0,0 C 1.732,0.993 3.431,1.896 5.091,2.722 4.41,3.064 3.734,3.388 3.057,3.706 1.749,3.034 0.43,2.322 -0.896,1.562 -2.222,0.802 -3.502,0.023 -4.743,-0.766 -4.81,-1.511 -4.872,-2.258 -4.921,-3.019 -3.37,-2.003 -1.732,-0.993 0,0" /></g><g
           transform="translate(8.5028,19.7671)"
           id="g132"><path
             id="path134"
             style="fill:#a9cdd5;fill-opacity:1;fill-rule:nonzero;stroke:none"
             d="m 0,0 c -1.604,2.797 1.475,8.451 8.427,14.676 -0.456,0.395 -0.9,0.79 -1.334,1.186 C -0.175,9.287 -3.741,2.906 -1.562,-0.896 c 1.183,-2.062 3.875,-3.049 7.583,-3.049 3.127,0 6.981,0.71 11.257,2.06 -0.122,0.573 -0.241,1.152 -0.35,1.745 C 8.041,-2.997 1.605,-2.799 0,0" /></g><g
           transform="translate(63.6243,51.3726)"
           id="g136"><path
             id="path138"
             style="fill:#ffffff;fill-opacity:1;fill-rule:nonzero;stroke:none"
             d="m 0,0 c 1.604,-2.797 -1.475,-8.451 -8.427,-14.676 0.456,-0.395 0.901,-0.79 1.334,-1.186 C 0.175,-9.286 3.741,-2.906 1.562,0.896 -0.619,4.697 -7.93,4.842 -17.279,1.89 -17.156,1.315 -17.038,0.734 -16.928,0.14 -8.04,2.996 -1.603,2.798 0,0" /></g><g
           transform="translate(47.9208,31.007)"
           id="g140"><path
             id="path142"
             style="fill:#a9cdd5;fill-opacity:1;fill-rule:nonzero;stroke:none"
             d="M 0,0 C -0.038,-0.758 -0.076,-1.516 -0.131,-2.261 2.588,-0.437 5.063,1.438 7.251,3.309 6.813,3.706 6.366,4.103 5.904,4.499 4.146,3.013 2.175,1.504 0,0" /></g><g
           transform="translate(24.337,42.3941)"
           id="g144"><path
             id="path146"
             style="fill:#ffffff;fill-opacity:1;fill-rule:nonzero;stroke:none"
             d="m 0,0 c -2.719,-1.824 -5.194,-3.699 -7.382,-5.57 0.438,-0.397 0.886,-0.794 1.348,-1.191 1.758,1.487 3.729,2.996 5.903,4.5 C -0.093,-1.503 -0.055,-0.745 0,0" /></g><g
           transform="translate(53.8246,35.5061)"
           id="g148"><path
             id="path150"
             style="fill:#a9cdd5;fill-opacity:1;fill-rule:nonzero;stroke:none"
             d="m 0,0 c 0.462,-0.396 0.91,-0.793 1.347,-1.19 0.467,0.399 0.92,0.797 1.36,1.195 C 2.273,0.4 1.829,0.796 1.373,1.19 0.932,0.796 0.471,0.399 0,0" /></g><g
           transform="translate(38.1156,48.1079)"
           id="g152"><path
             id="path154"
             style="fill:#ffffff;fill-opacity:1;fill-rule:nonzero;stroke:none"
             d="M 0,0 C -0.674,0.351 -1.347,0.701 -2.018,1.03 -2.695,0.703 -3.378,0.359 -4.063,0.007 -3.386,-0.312 -2.709,-0.635 -2.028,-0.978 -1.345,-0.638 -0.669,-0.312 0,0" /></g><g
           transform="translate(18.3026,35.6335)"
           id="g156"><path
             id="path158"
             style="fill:#ffffff;fill-opacity:1;fill-rule:nonzero;stroke:none"
             d="M 0,0 C -0.462,0.396 -0.91,0.793 -1.348,1.191 -1.814,0.792 -2.267,0.393 -2.707,-0.004 -2.273,-0.4 -1.829,-0.795 -1.373,-1.19 -0.932,-0.795 -0.471,-0.399 0,0" /></g><g
           transform="translate(34.0117,23.0318)"
           id="g160"><path
             id="path162"
             style="fill:#ffffff;fill-opacity:1;fill-rule:nonzero;stroke:none"
             d="m 0,0 c 0.673,-0.351 1.346,-0.7 2.016,-1.029 0.68,0.329 1.363,0.667 2.05,1.021 C 3.388,0.311 2.71,0.635 2.028,0.978 1.345,0.638 0.669,0.312 0,0" /></g><g
           transform="translate(26.2525,43.6417)"
           id="g164"><path
             id="path166"
             style="fill:#a9cdd5;fill-opacity:1;fill-rule:nonzero;stroke:none"
             d="m 0,0 c -0.65,-0.413 -1.291,-0.828 -1.916,-1.248 -0.055,-0.745 -0.093,-1.503 -0.13,-2.261 0.607,0.42 1.23,0.838 1.868,1.256 C -0.129,-1.492 -0.067,-0.744 0,0" /></g><g
           transform="translate(27.1487,20.2096)"
           id="g168"><path
             id="path170"
             style="fill:#a9cdd5;fill-opacity:1;fill-rule:nonzero;stroke:none"
             d="m 0,0 c -0.581,-0.205 -1.156,-0.402 -1.718,-0.583 0.11,-0.592 0.228,-1.171 0.35,-1.744 0.566,0.179 1.139,0.368 1.72,0.57 C 0.23,-1.179 0.109,-0.599 0,0" /></g><g
           transform="translate(45.8746,27.4984)"
           id="g172"><path
             id="path174"
             style="fill:#ffffff;fill-opacity:1;fill-rule:nonzero;stroke:none"
             d="M 0,0 C 0.65,0.413 1.291,0.828 1.916,1.248 1.97,1.993 2.009,2.75 2.046,3.509 1.439,3.089 0.816,2.671 0.178,2.252 0.129,1.492 0.067,0.744 0,0" /></g><g
           transform="translate(44.9782,50.9292)"
           id="g176"><path
             id="path178"
             style="fill:#ffffff;fill-opacity:1;fill-rule:nonzero;stroke:none"
             d="M 0,0 C 0.581,0.205 1.156,0.402 1.718,0.583 1.608,1.177 1.49,1.758 1.367,2.333 0.801,2.154 0.227,1.964 -0.353,1.763 -0.231,1.183 -0.109,0.601 0,0" /></g></g></g></g></svg>